G04*
G04 #@! TF.GenerationSoftware,Altium Limited,Altium Designer,21.6.4 (81)*
G04*
G04 Layer_Physical_Order=1*
G04 Layer_Color=255*
%FSLAX25Y25*%
%MOIN*%
G70*
G04*
G04 #@! TF.SameCoordinates,7FA0644F-06A5-4919-BB8C-97BE94AA254E*
G04*
G04*
G04 #@! TF.FilePolarity,Positive*
G04*
G01*
G75*
%ADD15R,0.05591X0.03937*%
%ADD16R,0.05433X0.04331*%
%ADD18R,0.11142X0.03819*%
%ADD19R,0.06299X0.04724*%
%ADD20R,0.06299X0.12992*%
%ADD21R,0.05512X0.06299*%
%ADD22R,0.03661X0.03898*%
%ADD41R,0.23976X0.22165*%
%ADD42C,0.01500*%
%ADD43C,0.04000*%
%ADD44R,0.20000X0.10000*%
%ADD45R,0.32500X0.25000*%
%ADD46C,0.07677*%
%ADD47R,0.07677X0.07677*%
%ADD48C,0.04724*%
%ADD49R,0.04724X0.04724*%
%ADD50C,0.20000*%
%ADD51C,0.06000*%
%ADD52C,0.06142*%
%ADD53R,0.06142X0.06142*%
%ADD54C,0.04500*%
%ADD55C,0.03500*%
G36*
X10000Y10000D02*
X200000D01*
Y45000D01*
X52500D01*
Y215000D01*
X132500D01*
Y252500D01*
X10000D01*
Y10000D01*
D02*
G37*
D15*
X400000Y48819D02*
D03*
Y56181D02*
D03*
Y76181D02*
D03*
Y68819D02*
D03*
X380000Y50138D02*
D03*
Y57500D02*
D03*
Y76181D02*
D03*
Y68819D02*
D03*
X360000Y48819D02*
D03*
Y56181D02*
D03*
Y76181D02*
D03*
Y68819D02*
D03*
X340000Y48819D02*
D03*
Y56181D02*
D03*
X320000Y48819D02*
D03*
Y56181D02*
D03*
X340000Y76181D02*
D03*
Y68819D02*
D03*
X320000Y76181D02*
D03*
Y68819D02*
D03*
X300000Y48819D02*
D03*
Y56181D02*
D03*
Y76181D02*
D03*
Y68819D02*
D03*
X280000Y48819D02*
D03*
Y56181D02*
D03*
Y76181D02*
D03*
Y68819D02*
D03*
X260000Y48819D02*
D03*
Y56181D02*
D03*
Y76181D02*
D03*
Y68819D02*
D03*
X240000Y48819D02*
D03*
Y56181D02*
D03*
Y76181D02*
D03*
Y68819D02*
D03*
X220000Y48819D02*
D03*
Y56181D02*
D03*
Y76181D02*
D03*
Y68819D02*
D03*
X250000Y171181D02*
D03*
Y163819D02*
D03*
Y136181D02*
D03*
Y128819D02*
D03*
D16*
X407500Y61602D02*
D03*
Y68398D02*
D03*
X387500Y61602D02*
D03*
Y68398D02*
D03*
X367500Y61602D02*
D03*
Y68398D02*
D03*
X347500Y61602D02*
D03*
Y68398D02*
D03*
X327500Y61602D02*
D03*
Y68398D02*
D03*
X307500Y61602D02*
D03*
Y68398D02*
D03*
X287500Y61602D02*
D03*
Y68398D02*
D03*
X267500Y61602D02*
D03*
Y68398D02*
D03*
X247500Y61602D02*
D03*
Y68398D02*
D03*
X227500Y61602D02*
D03*
Y68398D02*
D03*
X182500Y229102D02*
D03*
Y235898D02*
D03*
X177500Y278398D02*
D03*
Y271602D02*
D03*
D18*
X176181Y264016D02*
D03*
Y245984D02*
D03*
D19*
X259902Y158445D02*
D03*
Y167500D02*
D03*
Y176555D02*
D03*
Y123445D02*
D03*
Y132500D02*
D03*
Y141555D02*
D03*
D20*
X285098Y167500D02*
D03*
Y132500D02*
D03*
D21*
X162500Y96535D02*
D03*
X171358D02*
D03*
X153642D02*
D03*
Y63465D02*
D03*
X171358D02*
D03*
D22*
X139469Y230000D02*
D03*
X145531D02*
D03*
D41*
X150000Y255000D02*
D03*
D42*
X347500Y85000D02*
X405000Y142500D01*
X347500Y68398D02*
Y85000D01*
X340000Y76181D02*
Y80000D01*
X292500Y87500D02*
X305000D01*
X335000Y117500D01*
X307500Y82500D02*
X340000Y115000D01*
X335000Y117500D02*
Y185000D01*
X340000Y115000D02*
Y200000D01*
X307500Y68398D02*
Y82500D01*
X272500Y280000D02*
X337657D01*
X270000Y277500D02*
X272500Y280000D01*
X185000Y110571D02*
Y207500D01*
X247500Y270000D02*
X280000D01*
X185000Y207500D02*
X247500Y270000D01*
X171358Y96535D02*
Y96929D01*
X185000Y110571D01*
X171358Y63465D02*
Y96535D01*
X152500Y62323D02*
X153642Y63465D01*
X152500Y57500D02*
Y62323D01*
X162500Y96535D02*
Y102500D01*
X152500Y97677D02*
Y102500D01*
Y97677D02*
X153642Y96535D01*
X327289Y68608D02*
X327500Y68819D01*
Y77500D01*
X400000Y150000D01*
Y215000D01*
X390000Y225000D02*
X400000Y215000D01*
X330000Y225000D02*
X390000D01*
X392500Y230000D02*
X405000Y217500D01*
Y142500D02*
Y217500D01*
X367500Y82500D02*
X410000Y125000D01*
X395000Y235000D02*
X410000Y220000D01*
Y125000D02*
Y220000D01*
X387500Y80000D02*
X415000Y107500D01*
X397500Y240000D02*
X415000Y222500D01*
Y107500D02*
Y222500D01*
X407500Y68398D02*
X420000Y80898D01*
Y225000D01*
X400000Y245000D02*
X420000Y225000D01*
X212500Y153481D02*
Y205000D01*
X217500Y210000D01*
X217422Y214922D02*
X217500Y215000D01*
X207500Y207500D02*
X214922Y214922D01*
X217422D01*
X257500Y210000D02*
X285000D01*
X257500Y215000D02*
X295000D01*
X300000Y240000D02*
X397500D01*
X387500Y68819D02*
Y80000D01*
X320000Y230000D02*
X392500D01*
X400000Y76181D02*
Y80000D01*
X367500Y68398D02*
Y82500D01*
X310000Y235000D02*
X395000D01*
X387289Y68608D02*
X387500Y68819D01*
X407289Y68608D02*
X407500Y68398D01*
X360000Y76181D02*
Y80000D01*
X380000Y76181D02*
Y80000D01*
X220000Y76181D02*
Y80000D01*
X240000Y76181D02*
Y80000D01*
X260000Y76181D02*
Y80000D01*
X280000Y76181D02*
Y80000D01*
X300000Y76181D02*
Y80000D01*
X320000Y76181D02*
Y80000D01*
X247500Y68398D02*
Y92500D01*
X252500Y97500D01*
X300000D01*
X325000Y122500D01*
Y180000D01*
X310321Y194679D02*
Y199679D01*
Y194679D02*
X325000Y180000D01*
X310000Y200000D02*
X310321Y199679D01*
X267500Y68398D02*
Y87500D01*
X272500Y92500D01*
X302500D01*
X330000Y120000D01*
X287500Y82500D02*
X292500Y87500D01*
X287500Y68819D02*
Y82500D01*
X330000Y120000D02*
Y182500D01*
X320000Y192500D02*
Y200000D01*
Y192500D02*
X330000Y182500D01*
X287289Y68608D02*
X287500Y68819D01*
X330000Y190000D02*
X335000Y185000D01*
X330000Y190000D02*
Y200000D01*
X290000Y250000D02*
Y270000D01*
Y250000D02*
X295000Y245000D01*
X400000D01*
X228262Y68608D02*
Y190762D01*
X237500Y200000D02*
X280000D01*
X228262Y190762D02*
X237500Y200000D01*
X220211Y68608D02*
X228262D01*
X295000Y215000D02*
X300000Y210000D01*
X205000Y157500D02*
X207500Y160000D01*
Y207500D01*
X197500Y157500D02*
X205000D01*
X207500Y147500D02*
X212500Y152500D01*
X176181Y264016D02*
X176341D01*
X177500Y265175D01*
X119750Y235000D02*
X120000Y234750D01*
X125000Y235000D02*
X130000Y230000D01*
X120000Y235000D02*
X125000D01*
X259902Y176555D02*
X260689D01*
X265000Y180866D01*
X257210Y155290D02*
Y156540D01*
X253460D02*
X257210D01*
X257500Y152500D02*
Y155000D01*
X257210Y155290D02*
X257500Y155000D01*
X250000Y163819D02*
X250750Y163069D01*
X250000Y171181D02*
Y175000D01*
X251555Y176555D01*
X250750Y159250D02*
Y163069D01*
Y159250D02*
X253460Y156540D01*
X266917Y141917D02*
X270000Y145000D01*
X260264Y141917D02*
X266917D01*
X251555Y176555D02*
X259902D01*
X250000Y136181D02*
Y140000D01*
X251555Y141555D01*
X259902D01*
X251555Y123445D02*
X259902D01*
X250000Y125000D02*
Y128819D01*
Y125000D02*
X251555Y123445D01*
X120000Y175000D02*
X123324D01*
X265000Y280000D02*
X270000Y285000D01*
X340000Y270000D02*
Y277657D01*
X337657Y280000D02*
X340000Y277657D01*
X349121Y285000D02*
X350000Y284121D01*
X270000Y285000D02*
X349121D01*
X350000Y270000D02*
Y284121D01*
X120000Y234750D02*
Y235000D01*
Y231216D02*
Y234750D01*
Y231216D02*
X126770Y224446D01*
Y220730D02*
Y224446D01*
X300000Y200000D02*
Y210000D01*
X290000Y200000D02*
Y205000D01*
X285000Y210000D02*
X290000Y205000D01*
X197500Y147500D02*
X207500D01*
X120000Y235000D02*
X120250Y235250D01*
X280000Y56181D02*
Y68819D01*
X280211Y68608D01*
X287289D01*
X307289D02*
X307500Y68398D01*
X300211Y68608D02*
X307289D01*
X300000Y68819D02*
X300211Y68608D01*
X300000Y56181D02*
Y68819D01*
X320000D02*
X320211Y68608D01*
X327289D01*
X320000Y56181D02*
Y68819D01*
X340000Y56181D02*
Y68819D01*
X340211Y68608D02*
X347289D01*
X347500Y68398D01*
X340000Y68819D02*
X340211Y68608D01*
X360000Y68819D02*
X360211Y68608D01*
X367289D01*
X367500Y68398D01*
X360000Y56181D02*
Y68819D01*
X359055Y47874D02*
X360000Y48819D01*
X359055Y22500D02*
Y47874D01*
X378740Y48919D02*
X379959Y50138D01*
X378740Y22500D02*
Y48919D01*
X379959Y50138D02*
X380000D01*
Y57500D02*
Y68819D01*
X380211Y68608D01*
X387289D01*
X400000Y68819D02*
X400211Y68608D01*
X407289D01*
X400000Y56181D02*
Y68819D01*
X398425Y22500D02*
X400000Y24075D01*
Y48819D01*
X339370Y22500D02*
Y48189D01*
X340000Y48819D01*
X319685Y22500D02*
Y48504D01*
X320000Y48819D01*
X300000Y22500D02*
Y48819D01*
X280315Y22500D02*
Y48504D01*
X280000Y48819D02*
X280315Y48504D01*
X267289Y68608D02*
X267500Y68398D01*
X260000Y68819D02*
X260211Y68608D01*
X267289D01*
X260000Y56181D02*
Y68819D01*
Y48819D02*
X260630Y48189D01*
Y22500D02*
Y48189D01*
X247289Y68608D02*
X247500Y68398D01*
X240000Y68819D02*
X240211Y68608D01*
X247289D01*
X240000Y56181D02*
Y68819D01*
Y48819D02*
X240945Y47874D01*
Y22500D02*
Y47874D01*
X220000Y56181D02*
Y68608D01*
Y68819D02*
X220211Y68608D01*
X220000Y48819D02*
X220041D01*
X221260Y47600D01*
Y22500D02*
Y47600D01*
D43*
X390000Y200000D02*
Y207500D01*
X382500Y215000D02*
X390000Y207500D01*
X315000Y215000D02*
X382500D01*
X305000Y225000D02*
X315000Y215000D01*
X247500Y225000D02*
X305000D01*
X220000Y197500D02*
X247500Y225000D01*
X220000Y137500D02*
Y197500D01*
X210000Y127500D02*
X220000Y137500D01*
X197500Y127500D02*
X210000D01*
X225157Y265158D02*
X252500Y292500D01*
X180803Y265158D02*
X225157D01*
X179752Y264106D02*
X180803Y265158D01*
X155000Y214685D02*
Y230000D01*
X145531D02*
X155000D01*
X170000D01*
X177500Y265175D02*
Y271602D01*
X182500Y235898D02*
Y243146D01*
X179661Y245984D02*
X182500Y243146D01*
X176181Y245984D02*
X179661D01*
X175000Y245894D02*
X175091Y245984D01*
X175000Y235000D02*
Y245894D01*
X175091Y245984D02*
X176181D01*
X170000Y230000D02*
X175000Y235000D01*
X130000Y230000D02*
X139469D01*
X252500Y292500D02*
X385000D01*
X259902Y141555D02*
X260264Y141917D01*
X126770Y220730D02*
X130000Y217500D01*
X390000Y270000D02*
Y287500D01*
X385000Y292500D02*
X390000Y287500D01*
D44*
X255000Y120000D02*
D03*
Y155000D02*
D03*
D45*
X298750Y132500D02*
D03*
Y167500D02*
D03*
D46*
X15020Y22500D02*
D03*
X34705D02*
D03*
X54390D02*
D03*
X74075D02*
D03*
X93760D02*
D03*
X113445D02*
D03*
X133130D02*
D03*
X152815D02*
D03*
X172500D02*
D03*
X221260D02*
D03*
X240945D02*
D03*
X260630D02*
D03*
X280315D02*
D03*
X300000D02*
D03*
X319685D02*
D03*
X339370D02*
D03*
X359055D02*
D03*
X378740D02*
D03*
D47*
X192185D02*
D03*
X398425D02*
D03*
D48*
X205000Y284842D02*
D03*
X155000Y195000D02*
D03*
D49*
X205000Y265158D02*
D03*
X155000Y214685D02*
D03*
D50*
X305000Y167500D02*
D03*
Y132500D02*
D03*
X120000Y175000D02*
D03*
Y140000D02*
D03*
Y270000D02*
D03*
Y235000D02*
D03*
D51*
X197500Y157500D02*
D03*
Y167500D02*
D03*
Y177500D02*
D03*
Y147500D02*
D03*
Y137500D02*
D03*
Y127500D02*
D03*
D52*
X350000Y200000D02*
D03*
X360000D02*
D03*
X370000D02*
D03*
X380000D02*
D03*
X300000D02*
D03*
X310000D02*
D03*
X320000D02*
D03*
X330000D02*
D03*
X340000D02*
D03*
X290000D02*
D03*
X280000D02*
D03*
X350000Y270000D02*
D03*
X360000D02*
D03*
X370000D02*
D03*
X380000D02*
D03*
X300000D02*
D03*
X310000D02*
D03*
X320000D02*
D03*
X330000D02*
D03*
X340000D02*
D03*
X290000D02*
D03*
X280000D02*
D03*
D53*
X390000Y200000D02*
D03*
Y270000D02*
D03*
D54*
X340000Y80000D02*
D03*
X270000Y277500D02*
D03*
X140000Y262500D02*
D03*
Y257500D02*
D03*
Y252500D02*
D03*
Y247500D02*
D03*
X182500Y227500D02*
D03*
X162500Y102500D02*
D03*
X152500D02*
D03*
Y57500D02*
D03*
X400000Y80000D02*
D03*
X407500Y57500D02*
D03*
X330000Y225000D02*
D03*
X320000Y230000D02*
D03*
X310000Y235000D02*
D03*
X300000Y240000D02*
D03*
X287500Y57500D02*
D03*
X267500D02*
D03*
X247500D02*
D03*
X227500D02*
D03*
X307500D02*
D03*
X327500D02*
D03*
X347500D02*
D03*
X367500D02*
D03*
X387500D02*
D03*
X220000Y80000D02*
D03*
X240000D02*
D03*
X260000D02*
D03*
X280000D02*
D03*
X380000D02*
D03*
X320000D02*
D03*
X300000D02*
D03*
X360000D02*
D03*
X270000Y145000D02*
D03*
X265000Y180866D02*
D03*
Y280000D02*
D03*
X252500Y122500D02*
D03*
X247500D02*
D03*
Y152500D02*
D03*
X252500Y157500D02*
D03*
X257500Y117500D02*
D03*
X262500D02*
D03*
X252500Y152500D02*
D03*
X247500Y157500D02*
D03*
X257500Y152500D02*
D03*
X262500D02*
D03*
X247500Y117500D02*
D03*
X252500D02*
D03*
X177500Y280000D02*
D03*
D55*
X217500Y215000D02*
D03*
Y210000D02*
D03*
X257500D02*
D03*
Y215000D02*
D03*
M02*
