G04*
G04 #@! TF.GenerationSoftware,Altium Limited,Altium Designer,21.6.4 (81)*
G04*
G04 Layer_Color=255*
%FSLAX25Y25*%
%MOIN*%
G70*
G04*
G04 #@! TF.SameCoordinates,7FA0644F-06A5-4919-BB8C-97BE94AA254E*
G04*
G04*
G04 #@! TF.FilePolarity,Positive*
G04*
G01*
G75*
%ADD46C,0.07677*%
%ADD47R,0.07677X0.07677*%
%ADD48C,0.04724*%
%ADD49R,0.04724X0.04724*%
%ADD50C,0.20000*%
%ADD51C,0.06000*%
%ADD52C,0.06142*%
%ADD53R,0.06142X0.06142*%
D46*
X15020Y22500D02*
D03*
X34705D02*
D03*
X54390D02*
D03*
X74075D02*
D03*
X93760D02*
D03*
X113445D02*
D03*
X133130D02*
D03*
X152815D02*
D03*
X172500D02*
D03*
X221260D02*
D03*
X240945D02*
D03*
X260630D02*
D03*
X280315D02*
D03*
X300000D02*
D03*
X319685D02*
D03*
X339370D02*
D03*
X359055D02*
D03*
X378740D02*
D03*
D47*
X192185D02*
D03*
X398425D02*
D03*
D48*
X205000Y284842D02*
D03*
X155000Y195000D02*
D03*
D49*
X205000Y265158D02*
D03*
X155000Y214685D02*
D03*
D50*
X305000Y167500D02*
D03*
Y132500D02*
D03*
X120000Y175000D02*
D03*
Y140000D02*
D03*
Y270000D02*
D03*
Y235000D02*
D03*
D51*
X197500Y157500D02*
D03*
Y167500D02*
D03*
Y177500D02*
D03*
Y147500D02*
D03*
Y137500D02*
D03*
Y127500D02*
D03*
D52*
X350000Y200000D02*
D03*
X360000D02*
D03*
X370000D02*
D03*
X380000D02*
D03*
X300000D02*
D03*
X310000D02*
D03*
X320000D02*
D03*
X330000D02*
D03*
X340000D02*
D03*
X290000D02*
D03*
X280000D02*
D03*
X350000Y270000D02*
D03*
X360000D02*
D03*
X370000D02*
D03*
X380000D02*
D03*
X300000D02*
D03*
X310000D02*
D03*
X320000D02*
D03*
X330000D02*
D03*
X340000D02*
D03*
X290000D02*
D03*
X280000D02*
D03*
D53*
X390000Y200000D02*
D03*
Y270000D02*
D03*
M02*
