G04*
G04 #@! TF.GenerationSoftware,Altium Limited,Altium Designer,21.6.4 (81)*
G04*
G04 Layer_Color=8388736*
%FSLAX25Y25*%
%MOIN*%
G70*
G04*
G04 #@! TF.SameCoordinates,7FA0644F-06A5-4919-BB8C-97BE94AA254E*
G04*
G04*
G04 #@! TF.FilePolarity,Negative*
G04*
G01*
G75*
%ADD23R,0.06391X0.04737*%
%ADD24R,0.06233X0.05131*%
%ADD25R,0.24776X0.22965*%
%ADD26R,0.11942X0.04619*%
%ADD27R,0.07099X0.05524*%
%ADD28R,0.07099X0.13792*%
%ADD29R,0.06312X0.07099*%
%ADD30R,0.04461X0.04698*%
%ADD31C,0.08477*%
%ADD32R,0.08477X0.08477*%
%ADD33C,0.05524*%
%ADD34R,0.05524X0.05524*%
%ADD35C,0.20800*%
%ADD36C,0.06800*%
%ADD37C,0.06942*%
%ADD38R,0.06942X0.06942*%
%ADD39C,0.05300*%
%ADD40C,0.04300*%
D23*
X400000Y48819D02*
D03*
Y56181D02*
D03*
Y76181D02*
D03*
Y68819D02*
D03*
X380000Y50138D02*
D03*
Y57500D02*
D03*
Y76181D02*
D03*
Y68819D02*
D03*
X360000Y48819D02*
D03*
Y56181D02*
D03*
Y76181D02*
D03*
Y68819D02*
D03*
X340000Y48819D02*
D03*
Y56181D02*
D03*
X320000Y48819D02*
D03*
Y56181D02*
D03*
X340000Y76181D02*
D03*
Y68819D02*
D03*
X320000Y76181D02*
D03*
Y68819D02*
D03*
X300000Y48819D02*
D03*
Y56181D02*
D03*
Y76181D02*
D03*
Y68819D02*
D03*
X280000Y48819D02*
D03*
Y56181D02*
D03*
Y76181D02*
D03*
Y68819D02*
D03*
X260000Y48819D02*
D03*
Y56181D02*
D03*
Y76181D02*
D03*
Y68819D02*
D03*
X240000Y48819D02*
D03*
Y56181D02*
D03*
Y76181D02*
D03*
Y68819D02*
D03*
X220000Y48819D02*
D03*
Y56181D02*
D03*
Y76181D02*
D03*
Y68819D02*
D03*
X250000Y171181D02*
D03*
Y163819D02*
D03*
Y136181D02*
D03*
Y128819D02*
D03*
D24*
X407500Y61602D02*
D03*
Y68398D02*
D03*
X387500Y61602D02*
D03*
Y68398D02*
D03*
X367500Y61602D02*
D03*
Y68398D02*
D03*
X347500Y61602D02*
D03*
Y68398D02*
D03*
X327500Y61602D02*
D03*
Y68398D02*
D03*
X307500Y61602D02*
D03*
Y68398D02*
D03*
X287500Y61602D02*
D03*
Y68398D02*
D03*
X267500Y61602D02*
D03*
Y68398D02*
D03*
X247500Y61602D02*
D03*
Y68398D02*
D03*
X227500Y61602D02*
D03*
Y68398D02*
D03*
X182500Y229102D02*
D03*
Y235898D02*
D03*
X177500Y278398D02*
D03*
Y271602D02*
D03*
D25*
X150000Y255000D02*
D03*
D26*
X176181Y264016D02*
D03*
Y245984D02*
D03*
D27*
X259902Y158445D02*
D03*
Y167500D02*
D03*
Y176555D02*
D03*
Y123445D02*
D03*
Y132500D02*
D03*
Y141555D02*
D03*
D28*
X285098Y167500D02*
D03*
Y132500D02*
D03*
D29*
X162500Y96535D02*
D03*
X171358D02*
D03*
X153642D02*
D03*
Y63465D02*
D03*
X171358D02*
D03*
D30*
X139469Y230000D02*
D03*
X145531D02*
D03*
D31*
X15020Y22500D02*
D03*
X34705D02*
D03*
X54390D02*
D03*
X74075D02*
D03*
X93760D02*
D03*
X113445D02*
D03*
X133130D02*
D03*
X152815D02*
D03*
X172500D02*
D03*
X221260D02*
D03*
X240945D02*
D03*
X260630D02*
D03*
X280315D02*
D03*
X300000D02*
D03*
X319685D02*
D03*
X339370D02*
D03*
X359055D02*
D03*
X378740D02*
D03*
D32*
X192185D02*
D03*
X398425D02*
D03*
D33*
X205000Y284842D02*
D03*
X155000Y195000D02*
D03*
D34*
X205000Y265158D02*
D03*
X155000Y214685D02*
D03*
D35*
X305000Y167500D02*
D03*
Y132500D02*
D03*
X120000Y175000D02*
D03*
Y140000D02*
D03*
Y270000D02*
D03*
Y235000D02*
D03*
D36*
X197500Y157500D02*
D03*
Y167500D02*
D03*
Y177500D02*
D03*
Y147500D02*
D03*
Y137500D02*
D03*
Y127500D02*
D03*
D37*
X350000Y200000D02*
D03*
X360000D02*
D03*
X370000D02*
D03*
X380000D02*
D03*
X300000D02*
D03*
X310000D02*
D03*
X320000D02*
D03*
X330000D02*
D03*
X340000D02*
D03*
X290000D02*
D03*
X280000D02*
D03*
X350000Y270000D02*
D03*
X360000D02*
D03*
X370000D02*
D03*
X380000D02*
D03*
X300000D02*
D03*
X310000D02*
D03*
X320000D02*
D03*
X330000D02*
D03*
X340000D02*
D03*
X290000D02*
D03*
X280000D02*
D03*
D38*
X390000Y200000D02*
D03*
Y270000D02*
D03*
D39*
X340000Y80000D02*
D03*
X270000Y277500D02*
D03*
X140000Y262500D02*
D03*
Y257500D02*
D03*
Y252500D02*
D03*
Y247500D02*
D03*
X182500Y227500D02*
D03*
X162500Y102500D02*
D03*
X152500D02*
D03*
Y57500D02*
D03*
X400000Y80000D02*
D03*
X407500Y57500D02*
D03*
X330000Y225000D02*
D03*
X320000Y230000D02*
D03*
X310000Y235000D02*
D03*
X300000Y240000D02*
D03*
X287500Y57500D02*
D03*
X267500D02*
D03*
X247500D02*
D03*
X227500D02*
D03*
X307500D02*
D03*
X327500D02*
D03*
X347500D02*
D03*
X367500D02*
D03*
X387500D02*
D03*
X220000Y80000D02*
D03*
X240000D02*
D03*
X260000D02*
D03*
X280000D02*
D03*
X380000D02*
D03*
X320000D02*
D03*
X300000D02*
D03*
X360000D02*
D03*
X270000Y145000D02*
D03*
X265000Y180866D02*
D03*
Y280000D02*
D03*
X252500Y122500D02*
D03*
X247500D02*
D03*
Y152500D02*
D03*
X252500Y157500D02*
D03*
X257500Y117500D02*
D03*
X262500D02*
D03*
X252500Y152500D02*
D03*
X247500Y157500D02*
D03*
X257500Y152500D02*
D03*
X262500D02*
D03*
X247500Y117500D02*
D03*
X252500D02*
D03*
X177500Y280000D02*
D03*
D40*
X217500Y215000D02*
D03*
Y210000D02*
D03*
X257500D02*
D03*
Y215000D02*
D03*
M02*
