M48
;Layer_Color=9474304
;FILE_FORMAT=2:5
INCH,TZ
;TYPE=PLATED
T1F00S00C0.02000
T2F00S00C0.02800
T3F00S00C0.03346
T4F00S00C0.04000
T5F00S00C0.04094
T6F00S00C0.05118
T7F00S00C0.12500
%
T01
X217500Y210000
Y215000
X257500
Y210000
T02
X152500Y57500
Y102500
X162500
X220000Y80000
X240000
X260000
X280000
X300000
X307500Y57500
X287500
X267500
X247500
X227500
X247500Y117500
Y122500
X252500
Y117500
X257500
X262500
X270000Y145000
X262500Y152500
X257500
X252500
X247500
X320000Y80000
X340000
X360000
X380000
X400000
X407500Y57500
X387500
X367500
X347500
X327500
X330000Y225000
X320000Y230000
X310000Y235000
X300000Y240000
X270000Y277500
X265000Y280000
X177500
X182500Y227500
X265000Y180866
X252500Y157500
X247500
X140000Y247500
Y252500
Y257500
Y262500
T03
X205000Y265158
Y284842
X155000Y214685
Y195000
T04
X197500Y127500
Y137500
Y147500
Y157500
Y167500
Y177500
T05
X320000Y200000
X330000
X340000
X350000
X360000
X370000
X380000
X390000
Y270000
X380000
X370000
X360000
X350000
X340000
X330000
X320000
X310000
X300000
X290000
X280000
Y200000
X290000
X300000
X310000
T06
X15020Y22500
X34705
X54390
X74075
X93760
X113445
X133130
X152815
X172500
X192185
X221260
X240945
X260630
X280315
X300000
X319685
X339370
X359055
X378740
X398425
T07
X120000Y140000
X305000Y132500
Y167500
X120000Y175000
Y235000
Y270000
M30
